<svg width="14" height="15" viewBox="0 0 14 15" fill="none" xmlns="http://www.w3.org/2000/svg">
<path d="M6.65054 3.51716H3.74377C3.12792 3.51716 2.6269 4.01818 2.6269 4.634V9.38122C2.6269 9.865 2.23472 10.2572 1.75095 10.2572C1.26718 10.2572 0.875 9.865 0.875 9.38122V4.634C0.875 3.05217 2.16194 1.76526 3.74377 1.76526H6.65051L6.38061 1.49535C6.03852 1.15327 6.03852 0.598652 6.38058 0.256565C6.72269 -0.0855217 7.27731 -0.0855217 7.61937 0.256565L9.38463 2.02183C9.54893 2.1861 9.6412 2.40892 9.6412 2.64121C9.6412 2.8735 9.54893 3.09632 9.38463 3.26059L7.61939 5.02585C7.44834 5.19691 7.22418 5.28242 6.99999 5.28242C6.7758 5.28242 6.55164 5.19691 6.38061 5.02585C6.03852 4.68377 6.03852 4.12915 6.38061 3.78706L6.65054 3.51716ZM12.249 3.75805C11.7653 3.75805 11.3731 4.15023 11.3731 4.634V9.38122C11.3731 9.99707 10.8721 10.4981 10.2562 10.4981H7.34946L7.61939 10.2281C7.96148 9.88605 7.96148 9.33143 7.61939 8.98934C7.27734 8.64726 6.72272 8.64726 6.38061 8.98934L4.61537 10.7546C4.45108 10.9189 4.3588 11.1417 4.3588 11.374C4.3588 11.6063 4.45108 11.8291 4.61537 11.9934L6.38063 13.7586C6.55166 13.9297 6.77585 14.0152 7.00001 14.0152C7.22418 14.0152 7.44837 13.9297 7.61942 13.7586C7.96148 13.4165 7.96148 12.8619 7.61939 12.5198L7.34949 12.2499H10.2562C11.8381 12.2499 13.125 10.963 13.125 9.3812V4.634C13.125 4.15023 12.7328 3.75805 12.249 3.75805Z" fill="white"/>
</svg>
