<svg width="110" height="110" viewBox="0 0 110 110" fill="none" xmlns="http://www.w3.org/2000/svg">
<g filter="url(#filter0_bd_6834_4528)">
<rect x="38.4238" y="5" width="48" height="48" rx="13.8323" transform="rotate(15 38.4238 5)" fill="url(#paint0_linear_6834_4528)" shape-rendering="crispEdges"/>
<rect x="38.7671" y="5.59459" width="47.029" height="47.029" rx="13.3468" transform="rotate(15 38.7671 5.59459)" stroke="url(#paint1_linear_6834_4528)" stroke-width="0.970954" shape-rendering="crispEdges"/>
<g clip-path="url(#clip0_6834_4528)">
<path fill-rule="evenodd" clip-rule="evenodd" d="M59.3281 27.3078C60.1251 27.5213 60.7365 28.1566 60.9243 28.9594C61.0461 29.4825 61.19 30.0167 61.3113 30.2517C61.5465 30.6823 61.9413 31.0057 62.4115 31.1498C64.0448 31.5875 65.0142 33.2665 64.5766 34.8999L64.576 34.9018L63.1157 40.3518C62.5287 42.5426 60.2765 43.8428 58.0868 43.2561L48.6321 40.7227C46.4414 40.1357 45.142 37.8838 45.729 35.6931L47.1894 30.243C47.6287 28.6111 49.306 27.6443 50.9385 28.0817C51.4181 28.1901 51.9206 28.1081 52.3407 27.852C52.5683 27.7055 52.9799 27.3011 53.3635 26.9032C53.9273 26.318 54.7634 26.0847 55.5491 26.2952L59.3281 27.3078Z" stroke="white" stroke-width="2" stroke-linecap="round" stroke-linejoin="round"/>
<path d="M60.9531 33.6348L60.938 33.6912" stroke="white" stroke-width="2" stroke-linecap="round" stroke-linejoin="round"/>
<path fill-rule="evenodd" clip-rule="evenodd" d="M58.0957 36.2617C58.5377 34.6122 57.5589 32.9156 55.9086 32.4734C54.2583 32.0312 52.5623 33.0111 52.1203 34.6606C51.6782 36.3108 52.6572 38.0066 54.3074 38.4488C55.9578 38.891 57.6535 37.9119 58.0957 36.2617Z" stroke="white" stroke-width="2" stroke-linecap="round" stroke-linejoin="round"/>
</g>
</g>
<defs>
<filter id="filter0_bd_6834_4528" x="-2.38027" y="-5.52127" width="115.55" height="118.494" filterUnits="userSpaceOnUse" color-interpolation-filters="sRGB">
<feFlood flood-opacity="0" result="BackgroundImageFix"/>
<feGaussianBlur in="BackgroundImageFix" stdDeviation="5.26063"/>
<feComposite in2="SourceAlpha" operator="in" result="effect1_backgroundBlur_6834_4528"/>
<feColorMatrix in="SourceAlpha" type="matrix" values="0 0 0 0 0 0 0 0 0 0 0 0 0 0 0 0 0 0 127 0" result="hardAlpha"/>
<feOffset dy="20.8034"/>
<feGaussianBlur stdDeviation="14.1906"/>
<feComposite in2="hardAlpha" operator="out"/>
<feColorMatrix type="matrix" values="0 0 0 0 0.00753472 0 0 0 0 0.00920856 0 0 0 0 0.129167 0 0 0 0.1 0"/>
<feBlend mode="normal" in2="effect1_backgroundBlur_6834_4528" result="effect2_dropShadow_6834_4528"/>
<feBlend mode="normal" in="SourceGraphic" in2="effect2_dropShadow_6834_4528" result="shape"/>
</filter>
<linearGradient id="paint0_linear_6834_4528" x1="49.0385" y1="10.2693" x2="76.9755" y2="52.9313" gradientUnits="userSpaceOnUse">
<stop stop-color="white" stop-opacity="0.1"/>
<stop offset="1" stop-color="white" stop-opacity="0.4"/>
</linearGradient>
<linearGradient id="paint1_linear_6834_4528" x1="49.0385" y1="4.92396" x2="79.0935" y2="52.9313" gradientUnits="userSpaceOnUse">
<stop stop-color="white" stop-opacity="0.12"/>
<stop offset="1" stop-color="white" stop-opacity="0.36"/>
</linearGradient>
<clipPath id="clip0_6834_4528">
<rect width="24" height="24" fill="white" transform="translate(46.9092 19.6973) rotate(15)"/>
</clipPath>
</defs>
</svg>
