<svg width="145" height="41" viewBox="0 0 145 41" fill="none" xmlns="http://www.w3.org/2000/svg">
<path d="M122.828 33.9986V28.7186L136.644 13.4946L137.612 15.6946H123.4V9.97461H143.464V15.2546L130 30.5226L129.032 28.2786H143.508V33.9986H122.828Z" fill="#202939"/>
<path d="M107.427 34.5273C105.697 34.5273 104.201 34.2486 102.939 33.6913C101.678 33.1339 100.71 32.3419 100.035 31.3153C99.3608 30.2593 99.0234 29.0126 99.0234 27.5753C99.0234 26.2259 99.3314 25.0379 99.9474 24.0113C100.563 22.9553 101.502 22.0753 102.763 21.3713C104.054 20.6673 105.653 20.1686 107.559 19.8753L114.907 18.6873V23.5273L108.747 24.6273C107.809 24.8033 107.09 25.1113 106.591 25.5513C106.093 25.9619 105.843 26.5633 105.843 27.3553C105.843 28.0886 106.122 28.6606 106.679 29.0713C107.237 29.4819 107.926 29.6873 108.747 29.6873C109.833 29.6873 110.786 29.4526 111.607 28.9833C112.429 28.5139 113.059 27.8833 113.499 27.0913C113.969 26.2699 114.203 25.3753 114.203 24.4073V18.1593C114.203 17.2499 113.837 16.4873 113.103 15.8713C112.399 15.2553 111.431 14.9473 110.199 14.9473C109.026 14.9473 107.985 15.2699 107.075 15.9153C106.195 16.5606 105.55 17.4113 105.139 18.4673L99.8594 15.9593C100.329 14.6099 101.077 13.4513 102.103 12.4833C103.13 11.5153 104.362 10.7673 105.799 10.2393C107.237 9.71127 108.806 9.44727 110.507 9.44727C112.531 9.44727 114.321 9.81393 115.875 10.5473C117.43 11.2806 118.633 12.3073 119.483 13.6273C120.363 14.9179 120.803 16.4286 120.803 18.1593V33.9993H114.643V30.1273L116.139 29.8633C115.435 30.9193 114.658 31.7993 113.807 32.5033C112.957 33.1779 112.003 33.6766 110.947 33.9993C109.891 34.3513 108.718 34.5273 107.427 34.5273Z" fill="#202939"/>
<path d="M82.8416 34.2635C79.9376 34.2635 77.6789 33.4862 76.0656 31.9315C74.4816 30.3475 73.6896 28.1475 73.6896 25.3315V15.6955H69.6416V9.97553H69.8616C71.0936 9.97553 72.0323 9.66753 72.6776 9.05153C73.3523 8.43553 73.6896 7.51153 73.6896 6.27953V4.51953H80.2896V9.97553H85.9216V15.6955H80.2896V24.8915C80.2896 25.7129 80.4363 26.4022 80.7296 26.9595C81.0229 27.4875 81.4776 27.8835 82.0936 28.1475C82.7096 28.4115 83.4723 28.5435 84.3816 28.5435C84.5869 28.5435 84.8216 28.5289 85.0856 28.4995C85.3496 28.4702 85.6283 28.4409 85.9216 28.4115V33.9995C85.4816 34.0582 84.9829 34.1169 84.4256 34.1755C83.8683 34.2342 83.3403 34.2635 82.8416 34.2635Z" fill="#202939"/>
<path d="M54.3184 33.9989V9.97494H60.4784V15.7389L60.0384 14.9029C60.5664 12.8789 61.4317 11.5149 62.6344 10.8109C63.8664 10.0776 65.3184 9.71094 66.9904 9.71094H68.3984V15.4309H66.3304C64.717 15.4309 63.4117 15.9296 62.4144 16.9269C61.417 17.8949 60.9184 19.2736 60.9184 21.0629V33.9989H54.3184Z" fill="#202939"/>
<path d="M36.9821 34.5273C35.2515 34.5273 33.7555 34.2486 32.4941 33.6913C31.2328 33.1339 30.2648 32.3419 29.5901 31.3153C28.9155 30.2593 28.5781 29.0126 28.5781 27.5753C28.5781 26.2259 28.8861 25.0379 29.5021 24.0113C30.1181 22.9553 31.0568 22.0753 32.3181 21.3713C33.6088 20.6673 35.2075 20.1686 37.1141 19.8753L44.4621 18.6873V23.5273L38.3021 24.6273C37.3635 24.8033 36.6448 25.1113 36.1461 25.5513C35.6475 25.9619 35.3981 26.5633 35.3981 27.3553C35.3981 28.0886 35.6768 28.6606 36.2341 29.0713C36.7915 29.4819 37.4808 29.6873 38.3021 29.6873C39.3875 29.6873 40.3408 29.4526 41.1621 28.9833C41.9835 28.5139 42.6141 27.8833 43.0541 27.0913C43.5235 26.2699 43.7581 25.3753 43.7581 24.4073V18.1593C43.7581 17.2499 43.3915 16.4873 42.6581 15.8713C41.9541 15.2553 40.9861 14.9473 39.7541 14.9473C38.5808 14.9473 37.5395 15.2699 36.6301 15.9153C35.7501 16.5606 35.1048 17.4113 34.6941 18.4673L29.4141 15.9593C29.8835 14.6099 30.6315 13.4513 31.6581 12.4833C32.6848 11.5153 33.9168 10.7673 35.3541 10.2393C36.7915 9.71127 38.3608 9.44727 40.0621 9.44727C42.0861 9.44727 43.8755 9.81393 45.4301 10.5473C46.9848 11.2806 48.1875 12.3073 49.0381 13.6273C49.9181 14.9179 50.3581 16.4286 50.3581 18.1593V33.9993H44.1981V30.1273L45.6941 29.8633C44.9901 30.9193 44.2128 31.7993 43.3621 32.5033C42.5115 33.1779 41.5581 33.6766 40.5021 33.9993C39.4461 34.3513 38.2728 34.5273 36.9821 34.5273Z" fill="#202939"/>
<path d="M14.2843 34.5284C12.6416 34.5284 11.1163 34.235 9.70831 33.6484C8.32965 33.0324 7.21498 32.1377 6.36431 30.9644L6.98031 29.6004V34.0004H0.820312V0.692383H7.42031V14.5524L6.40831 13.2324C7.20031 12.0297 8.27098 11.1057 9.62031 10.4604C10.999 9.78572 12.5683 9.44838 14.3283 9.44838C16.6163 9.44838 18.6843 10.0057 20.5323 11.1204C22.3803 12.235 23.847 13.7457 24.9323 15.6524C26.0176 17.5297 26.5603 19.6417 26.5603 21.9884C26.5603 24.3057 26.0176 26.4177 24.9323 28.3244C23.8763 30.2311 22.4243 31.7417 20.5763 32.8564C18.7283 33.971 16.631 34.5284 14.2843 34.5284ZM13.4923 28.5884C14.7243 28.5884 15.8096 28.3097 16.7483 27.7524C17.687 27.195 18.4203 26.4177 18.9483 25.4204C19.4763 24.423 19.7403 23.279 19.7403 21.9884C19.7403 20.6977 19.4763 19.5684 18.9483 18.6004C18.4203 17.603 17.687 16.8257 16.7483 16.2684C15.8096 15.6817 14.7243 15.3884 13.4923 15.3884C12.319 15.3884 11.263 15.667 10.3243 16.2244C9.41498 16.7817 8.69631 17.559 8.16831 18.5564C7.66965 19.5537 7.42031 20.6977 7.42031 21.9884C7.42031 23.279 7.66965 24.423 8.16831 25.4204C8.69631 26.4177 9.41498 27.195 10.3243 27.7524C11.263 28.3097 12.319 28.5884 13.4923 28.5884Z" fill="#202939"/>
<path d="M85.75 32.6494C85.75 36.3773 88.7721 39.3994 92.5 39.3994C96.2279 39.3994 99.25 36.3773 99.25 32.6494C99.25 28.9215 96.2279 25.8994 92.5 25.8994C88.7721 25.8994 85.75 28.9215 85.75 32.6494Z" fill="#2970FF" stroke="white" stroke-width="3"/>
</svg>
