<svg width="22" height="22" viewBox="0 0 22 22" fill="none" xmlns="http://www.w3.org/2000/svg">
<path d="M7.80757 6.76007C7.80757 8.51449 6.32133 9.93683 4.63087 9.93683C2.94041 9.93683 1.20869 8.46601 1.45519 6.76007C1.58515 5.8576 2.01215 4.43737 2.38551 3.30077C2.73722 2.22605 3.73973 1.50098 4.87117 1.50098H17.0592C18.1855 1.50098 19.1839 2.21987 19.5407 3.28736C19.9213 4.42602 20.3576 5.85347 20.4886 6.76007C20.7351 8.46601 19.0034 9.93683 17.3129 9.93683C15.6224 9.93683 14.1362 8.51449 14.1362 6.76007" stroke="#364152" stroke-width="2" stroke-linecap="round" stroke-linejoin="round"/>
<path d="M7.79492 5.76562V6.75886C7.79492 8.51327 9.21724 9.93451 10.9716 9.93451C12.725 9.93451 14.1473 8.51327 14.1473 6.75886V5.76562" stroke="#364152" stroke-width="2" stroke-linecap="round" stroke-linejoin="round"/>
<path d="M2.86719 12.3867V15.9079C2.86719 18.5988 4.54321 20.5007 7.23619 20.5007H14.9417C17.6358 20.5007 19.3129 18.5988 19.3129 15.9079V12.3867" stroke="#364152" stroke-width="2" stroke-linecap="round" stroke-linejoin="round"/>
<path d="M8.19824 20.4999V17.1933C8.19824 15.6616 9.44004 14.4199 10.9717 14.4199C12.5033 14.4199 13.7441 15.6616 13.7441 17.1933V20.4999" stroke="#364152" stroke-width="2" stroke-linecap="round" stroke-linejoin="round"/>
<path d="M15.706 12.9753H15.6382M15.6914 13.2501C15.5387 13.2501 15.415 13.1263 15.415 12.9736C15.415 12.8209 15.5387 12.6973 15.6914 12.6973C15.844 12.6973 15.9678 12.8209 15.9678 12.9736C15.9678 13.1263 15.844 13.2501 15.6914 13.2501Z" stroke="#364152" stroke-width="1.59004" stroke-linecap="round" stroke-linejoin="round"/>
</svg>
