<svg width="21" height="17" viewBox="0 0 21 17" fill="none" xmlns="http://www.w3.org/2000/svg">
<path fill-rule="evenodd" clip-rule="evenodd" d="M20.8004 8.5998C20.8004 8.5998 20.8004 4.9728 20.3343 3.23535C20.0782 2.2779 19.3214 1.52325 18.3575 1.2639C16.6143 0.799805 10.6004 0.799805 10.6004 0.799805C10.6004 0.799805 4.58953 0.799805 2.84329 1.2639C1.88347 1.51935 1.12561 2.27498 0.866531 3.23535C0.400391 4.9728 0.400391 8.5998 0.400391 8.5998C0.400391 8.5998 0.400391 12.2268 0.866531 13.9643C1.12255 14.9217 1.87939 15.6764 2.84329 15.9357C4.58953 16.3998 10.6004 16.3998 10.6004 16.3998C10.6004 16.3998 16.6143 16.3998 18.3575 15.9357C19.3173 15.6803 20.0752 14.9246 20.3343 13.9643C20.8004 12.2268 20.8004 8.5998 20.8004 8.5998ZM14.6804 8.6L8.56036 12.0125V5.1875L14.6804 8.6Z" fill="#697586"/>
</svg>
